name Walk10.mot
datacolumns 19
datarows 22
range 2.19000000 2.21100000
endheader

                time	   L_ground_force_vx	   L_ground_force_vy	   L_ground_force_vz	   L_ground_force_px	   L_ground_force_py	   L_ground_force_pz	   R_ground_force_vx	   R_ground_force_vy	   R_ground_force_vz	   R_ground_force_px	   R_ground_force_py	   R_ground_force_pz	   L_ground_torque_x	   L_ground_torque_y	   L_ground_torque_z	   R_ground_torque_x	   R_ground_torque_y	   R_ground_torque_z	
          2.19000000	          7.48526464	         31.23552295	         -0.04253184	          0.00368413	          0.00000000	          0.00256468	         -0.00000000	          0.00000000	          0.00000000	          0.00000000	          0.00000000	          0.00000000	          0.00000000	         -0.04509451	          0.00000000	          0.00000000	         -0.00000000	          0.00000000	
          2.19100000	          7.84257013	         34.64656790	         -0.06454142	         -0.01521758	          0.00000000	         -0.00092270	         -0.00000000	          0.00000000	          0.00000000	          0.00000000	          0.00000000	          0.00000000	          0.00000000	         -0.04908704	          0.00000000	          0.00000000	         -0.00000000	          0.00000000	
          2.19200000	          8.18240037	         38.17937995	         -0.09232179	         -0.03405999	          0.00000000	         -0.00439491	         -0.00000000	          0.00000000	          0.00000000	          0.00000000	          0.00000000	          0.00000000	          0.00000000	         -0.05294601	          0.00000000	          0.00000000	         -0.00000000	          0.00000000	
          2.19300000	          8.50211741	         41.83179383	         -0.12620947	         -0.05279709	          0.00000000	         -0.00784331	         -0.00000000	          0.00000000	          0.00000000	          0.00000000	          0.00000000	          0.00000000	          0.00000000	         -0.05664949	          0.00000000	          0.00000000	         -0.00000000	          0.00000000	
          2.19400000	          8.79895578	         45.60104752	         -0.16653948	         -0.07138234	          0.00000000	         -0.01125925	         -0.00000000	          0.00000000	          0.00000000	          0.00000000	          0.00000000	          0.00000000	          0.00000000	         -0.06017473	          0.00000000	          0.00000000	         -0.00000000	          0.00000000	
          2.19500000	          9.07001748	         49.48372525	         -0.21364484	         -0.08976839	          0.00000000	         -0.01463392	         -0.00000000	          0.00000000	          0.00000000	          0.00000000	          0.00000000	          0.00000000	          0.00000000	         -0.06349811	          0.00000000	          0.00000000	         -0.00000000	          0.00000000	
          2.19600000	          9.31227207	         53.47571195	         -0.26785489	         -0.10790721	          0.00000000	         -0.01795843	         -0.00000000	          0.00000000	          0.00000000	          0.00000000	          0.00000000	          0.00000000	          0.00000000	         -0.06659513	          0.00000000	          0.00000000	         -0.00000000	          0.00000000	
          2.19700000	          9.52257327	         57.57219286	         -0.32949006	         -0.12575161	          0.00000000	         -0.02122408	         -0.00000000	          0.00000000	          0.00000000	          0.00000000	          0.00000000	          0.00000000	          0.00000000	         -0.06944073	          0.00000000	          0.00000000	         -0.00000000	          0.00000000	
          2.19800000	          9.69769467	         61.76770808	         -0.39885264	         -0.14325757	          0.00000000	         -0.02442282	         -0.00000000	          0.00000000	          0.00000000	          0.00000000	          0.00000000	          0.00000000	          0.00000000	         -0.07200982	          0.00000000	          0.00000000	         -0.00000000	          0.00000000	
          2.19900000	          9.83437086	         66.05622779	         -0.47621679	         -0.16038578	          0.00000000	         -0.02754749	         -0.00000000	          0.00000000	          0.00000000	          0.00000000	          0.00000000	          0.00000000	          0.00000000	         -0.07427783	          0.00000000	          0.00000000	         -0.00000000	          0.00000000	
          2.20000000	          9.92933502	         70.43122701	         -0.56181971	         -0.17710176	          0.00000000	         -0.03059183	         -0.00000000	          0.00000000	          0.00000000	          0.00000000	          0.00000000	          0.00000000	          0.00000000	         -0.07622095	          0.00000000	          0.00000000	         -0.00000000	          0.00000000	
          2.20100000	          9.97935576	         74.88577118	         -0.65585350	         -0.19337558	          0.00000000	         -0.03355042	         -0.00000000	          0.00000000	          0.00000000	          0.00000000	          0.00000000	          0.00000000	          0.00000000	         -0.07781621	          0.00000000	          0.00000000	         -0.00000000	          0.00000000	
          2.20200000	          9.98127598	         79.41262340	         -0.75845668	         -0.20918159	          0.00000000	         -0.03641866	         -0.00000000	          0.00000000	          0.00000000	          0.00000000	          0.00000000	          0.00000000	          0.00000000	         -0.07904128	          0.00000000	          0.00000000	         -0.00000000	          0.00000000	
          2.20300000	          9.93205470	         84.00437657	         -0.86970536	         -0.22449811	          0.00000000	         -0.03919265	         -0.00000000	          0.00000000	          0.00000000	          0.00000000	          0.00000000	          0.00000000	          0.00000000	         -0.07987424	          0.00000000	          0.00000000	         -0.00000000	          0.00000000	
          2.20400000	          9.82881247	         88.65360937	         -0.98960378	         -0.23930721	          0.00000000	         -0.04186925	         -0.00000000	          0.00000000	          0.00000000	          0.00000000	          0.00000000	          0.00000000	          0.00000000	         -0.08029337	          0.00000000	          0.00000000	         -0.00000000	          0.00000000	
          2.20500000	          9.66888014	         93.35305856	         -1.11807476	         -0.25359442	          0.00000000	         -0.04444596	         -0.00000000	          0.00000000	          0.00000000	          0.00000000	          0.00000000	          0.00000000	          0.00000000	         -0.08027708	          0.00000000	          0.00000000	         -0.00000000	          0.00000000	
          2.20600000	          9.44984932	         98.09579468	         -1.25495075	         -0.26734848	          0.00000000	         -0.04692096	         -0.00000000	          0.00000000	          0.00000000	          0.00000000	          0.00000000	          0.00000000	          0.00000000	         -0.07980399	          0.00000000	          0.00000000	         -0.00000000	          0.00000000	
          2.20700000	          9.16962165	        102.87538430	         -1.39996698	         -0.28056114	          0.00000000	         -0.04929298	         -0.00000000	          0.00000000	          0.00000000	          0.00000000	          0.00000000	          0.00000000	          0.00000000	         -0.07885319	          0.00000000	          0.00000000	         -0.00000000	          0.00000000	
          2.20800000	          8.82645353	        107.68602279	         -1.55275768	         -0.29322689	          0.00000000	         -0.05156132	         -0.00000000	          0.00000000	          0.00000000	          0.00000000	          0.00000000	          0.00000000	          0.00000000	         -0.07740458	          0.00000000	          0.00000000	         -0.00000000	          0.00000000	
          2.20900000	          8.41899297	        112.52262525	         -1.71285639	         -0.30534279	          0.00000000	         -0.05372578	         -0.00000000	          0.00000000	          0.00000000	          0.00000000	          0.00000000	          0.00000000	          0.00000000	         -0.07543915	          0.00000000	          0.00000000	         -0.00000000	          0.00000000	
          2.21000000	          7.94630613	        117.38087034	         -1.87970039	         -0.31690823	          0.00000000	         -0.05578659	         -0.00000000	          0.00000000	          0.00000000	          0.00000000	          0.00000000	          0.00000000	          0.00000000	         -0.07293925	          0.00000000	          0.00000000	         -0.00000000	          0.00000000	
          2.21100000	          7.40789259	        122.25719893	         -2.05263874	         -0.32792475	          0.00000000	         -0.05774443	         -0.00000000	          0.00000000	          0.00000000	          0.00000000	          0.00000000	          0.00000000	          0.00000000	         -0.06988870	          0.00000000	          0.00000000	         -0.00000000	          0.00000000	
